<?xml version="1.0" encoding="UTF-8" standalone="no"?>
<!DOCTYPE svg PUBLIC "-//W3C//DTD SVG 1.1//EN"
 "http://www.w3.org/Graphics/SVG/1.1/DTD/svg11.dtd">
<!-- Generated by graphviz version 2.26.3 (20100126.1600)
 -->
<!-- Title: lalr1 Pages: 1 -->
<svg width="1588pt" height="474pt"
 viewBox="0.00 0.00 1588.00 474.00" xmlns="http://www.w3.org/2000/svg" xmlns:xlink="http://www.w3.org/1999/xlink">
<g id="graph1" class="graph" transform="scale(1 1) rotate(0) translate(4 470)">
<title>lalr1</title>
<polygon fill="white" stroke="white" points="-4,5 -4,-470 1585,-470 1585,5 -4,5"/>
<!-- 0 -->
<g id="node1" class="node"><title>0</title>
<polygon fill="none" stroke="black" points="0,-36 0,-156 160,-156 160,-36 0,-36"/>
<text text-anchor="middle" x="13" y="-91.4" font-family="Times Roman,serif" font-size="14.00">0</text>
<polyline fill="none" stroke="black" points="26,-36 26,-156 "/>
<text text-anchor="start" x="34" y="-139.4" font-family="Times Roman,serif" font-size="14.00">[START &#45;&gt; ・ E $ , ]</text>
<text text-anchor="start" x="34" y="-123.4" font-family="Times Roman,serif" font-size="14.00">[E &#45;&gt; ・ E + T , ]</text>
<text text-anchor="start" x="34" y="-107.4" font-family="Times Roman,serif" font-size="14.00">[E &#45;&gt; ・ T , ]</text>
<text text-anchor="start" x="34" y="-91.4" font-family="Times Roman,serif" font-size="14.00">[T &#45;&gt; ・ T * F , ]</text>
<text text-anchor="start" x="34" y="-75.4" font-family="Times Roman,serif" font-size="14.00">[T &#45;&gt; ・ F , ]</text>
<text text-anchor="start" x="34" y="-59.4" font-family="Times Roman,serif" font-size="14.00">[F &#45;&gt; ・ ( E ) , ]</text>
<text text-anchor="start" x="34" y="-43.4" font-family="Times Roman,serif" font-size="14.00">[F &#45;&gt; ・ id , ]</text>
</g>
<!-- 5 -->
<g id="node3" class="node"><title>5</title>
<polygon fill="none" stroke="black" points="206,-254 206,-294 366,-294 366,-254 206,-254"/>
<text text-anchor="middle" x="219" y="-269.4" font-family="Times Roman,serif" font-size="14.00">5</text>
<polyline fill="none" stroke="black" points="232,-254 232,-294 "/>
<text text-anchor="start" x="240" y="-277.4" font-family="Times Roman,serif" font-size="14.00">[START &#45;&gt; ・ E $ , ]</text>
<text text-anchor="start" x="240" y="-261.4" font-family="Times Roman,serif" font-size="14.00">[E &#45;&gt; ・ E + T , ]</text>
</g>
<!-- 0&#45;&gt;5 -->
<g id="edge2" class="edge"><title>0&#45;&gt;5</title>
<path fill="none" stroke="black" d="M149.455,-156.015C185.175,-186.88 226.938,-222.966 254.782,-247.025"/>
<polygon fill="black" stroke="black" points="252.746,-249.892 262.601,-253.781 257.323,-244.595 252.746,-249.892"/>
<text text-anchor="middle" x="183" y="-188.4" font-family="Times Roman,serif" font-size="14.00">E</text>
</g>
<!-- 4 -->
<g id="node5" class="node"><title>4</title>
<polygon fill="none" stroke="black" points="973,-47 973,-87 1115,-87 1115,-47 973,-47"/>
<text text-anchor="middle" x="986" y="-62.4" font-family="Times Roman,serif" font-size="14.00">4</text>
<polyline fill="none" stroke="black" points="999,-47 999,-87 "/>
<text text-anchor="start" x="1007" y="-70.4" font-family="Times Roman,serif" font-size="14.00">[E &#45;&gt; ・ T , ) $ +]</text>
<text text-anchor="start" x="1007" y="-54.4" font-family="Times Roman,serif" font-size="14.00">[T &#45;&gt; ・ T * F , ]</text>
</g>
<!-- 0&#45;&gt;4 -->
<g id="edge4" class="edge"><title>0&#45;&gt;4</title>
<path fill="none" stroke="black" d="M160.264,-39.0469C196.855,-18.375 241.808,-0 286,-0 286,-0 286,-0 687,-0 804.919,-1.42109e-14 835.192,-8.09278 950,-35 960.176,-37.3848 970.803,-40.4347 981.098,-43.7009"/>
<polygon fill="black" stroke="black" points="980.249,-47.1054 990.842,-46.8841 982.423,-40.4515 980.249,-47.1054"/>
<text text-anchor="middle" x="492" y="-3.4" font-family="Times Roman,serif" font-size="14.00">T</text>
</g>
<!-- 3 -->
<g id="node7" class="node"><title>3</title>
<polygon fill="none" stroke="black" points="968.5,-105 968.5,-141 1119.5,-141 1119.5,-105 968.5,-105"/>
<text text-anchor="middle" x="981.5" y="-118.4" font-family="Times Roman,serif" font-size="14.00">3</text>
<polyline fill="none" stroke="black" points="994.5,-105 994.5,-141 "/>
<text text-anchor="start" x="1002.5" y="-118.4" font-family="Times Roman,serif" font-size="14.00">[T &#45;&gt; ・ F , ) * $ +]</text>
</g>
<!-- 0&#45;&gt;3 -->
<g id="edge6" class="edge"><title>0&#45;&gt;3</title>
<path fill="none" stroke="black" d="M160.363,-70.66C198.102,-60.8791 243.944,-52 286,-52 286,-52 286,-52 687,-52 804.162,-52 848.138,-12.1107 950,-70 962.219,-76.9443 956.84,-87.4574 968,-96 969.626,-97.2447 971.315,-98.4353 973.053,-99.5739"/>
<polygon fill="black" stroke="black" points="971.699,-102.836 982.102,-104.844 975.222,-96.7867 971.699,-102.836"/>
<text text-anchor="middle" x="492" y="-55.4" font-family="Times Roman,serif" font-size="14.00">F</text>
</g>
<!-- 2 -->
<g id="node9" class="node"><title>2</title>
<polygon fill="none" stroke="black" points="618.5,-132 618.5,-252 755.5,-252 755.5,-132 618.5,-132"/>
<text text-anchor="middle" x="631.5" y="-187.4" font-family="Times Roman,serif" font-size="14.00">2</text>
<polyline fill="none" stroke="black" points="644.5,-132 644.5,-252 "/>
<text text-anchor="start" x="652.5" y="-235.4" font-family="Times Roman,serif" font-size="14.00">[E &#45;&gt; ・ E + T , ]</text>
<text text-anchor="start" x="652.5" y="-219.4" font-family="Times Roman,serif" font-size="14.00">[E &#45;&gt; ・ T , ]</text>
<text text-anchor="start" x="652.5" y="-203.4" font-family="Times Roman,serif" font-size="14.00">[T &#45;&gt; ・ T * F , ]</text>
<text text-anchor="start" x="652.5" y="-187.4" font-family="Times Roman,serif" font-size="14.00">[T &#45;&gt; ・ F , ]</text>
<text text-anchor="start" x="652.5" y="-171.4" font-family="Times Roman,serif" font-size="14.00">[F &#45;&gt; ・ ( E ) , ]</text>
<text text-anchor="start" x="652.5" y="-155.4" font-family="Times Roman,serif" font-size="14.00">[F &#45;&gt; ・ ( E ) , ]</text>
<text text-anchor="start" x="652.5" y="-139.4" font-family="Times Roman,serif" font-size="14.00">[F &#45;&gt; ・ id , ]</text>
</g>
<!-- 0&#45;&gt;2 -->
<g id="edge8" class="edge"><title>0&#45;&gt;2</title>
<path fill="none" stroke="black" d="M160.292,-108.699C276.955,-127.149 492.019,-161.163 607.969,-179.501"/>
<polygon fill="black" stroke="black" points="607.767,-183.012 618.191,-181.118 608.861,-176.098 607.767,-183.012"/>
<text text-anchor="middle" x="389" y="-148.4" font-family="Times Roman,serif" font-size="14.00">(</text>
</g>
<!-- 1 -->
<g id="node11" class="node"><title>1</title>
<polygon fill="none" stroke="black" points="1411,-307 1411,-343 1567,-343 1567,-307 1411,-307"/>
<text text-anchor="middle" x="1424" y="-320.4" font-family="Times Roman,serif" font-size="14.00">1</text>
<polyline fill="none" stroke="black" points="1437,-307 1437,-343 "/>
<text text-anchor="start" x="1445" y="-320.4" font-family="Times Roman,serif" font-size="14.00">[F &#45;&gt; ・ id , ) * $ +]</text>
</g>
<!-- 0&#45;&gt;1 -->
<g id="edge10" class="edge"><title>0&#45;&gt;1</title>
<path fill="none" stroke="black" d="M87.3289,-156.051C103.372,-257.049 151.608,-450 286,-450 286,-450 286,-450 1259,-450 1341.87,-450 1423.38,-386.582 1463.42,-350.089"/>
<polygon fill="black" stroke="black" points="1465.91,-352.546 1470.86,-343.176 1461.15,-347.417 1465.91,-352.546"/>
<text text-anchor="middle" x="687" y="-453.4" font-family="Times Roman,serif" font-size="14.00">id</text>
</g>
<!-- 7 -->
<g id="node21" class="node"><title>7</title>
<polygon fill="none" stroke="black" points="412,-336 412,-372 572,-372 572,-336 412,-336"/>
<text text-anchor="middle" x="425" y="-349.4" font-family="Times Roman,serif" font-size="14.00">7</text>
<polyline fill="none" stroke="black" points="438,-336 438,-372 "/>
<text text-anchor="start" x="446" y="-349.4" font-family="Times Roman,serif" font-size="14.00">[START &#45;&gt; ・ E $ , ]</text>
</g>
<!-- 5&#45;&gt;7 -->
<g id="edge24" class="edge"><title>5&#45;&gt;7</title>
<path fill="none" stroke="black" d="M331.463,-294.065C355.282,-304.336 385.033,-316.793 412,-327 416.845,-328.834 421.878,-330.676 426.953,-332.489"/>
<polygon fill="black" stroke="black" points="426.134,-335.911 436.728,-335.931 428.458,-329.309 426.134,-335.911"/>
<text text-anchor="middle" x="389" y="-321.4" font-family="Times Roman,serif" font-size="14.00">$</text>
</g>
<!-- 6 -->
<g id="node23" class="node"><title>6</title>
<polygon fill="none" stroke="black" points="423.5,-230 423.5,-318 560.5,-318 560.5,-230 423.5,-230"/>
<text text-anchor="middle" x="436.5" y="-269.4" font-family="Times Roman,serif" font-size="14.00">6</text>
<polyline fill="none" stroke="black" points="449.5,-230 449.5,-318 "/>
<text text-anchor="start" x="457.5" y="-301.4" font-family="Times Roman,serif" font-size="14.00">[E &#45;&gt; ・ E + T , ]</text>
<text text-anchor="start" x="457.5" y="-285.4" font-family="Times Roman,serif" font-size="14.00">[T &#45;&gt; ・ T * F , ]</text>
<text text-anchor="start" x="457.5" y="-269.4" font-family="Times Roman,serif" font-size="14.00">[T &#45;&gt; ・ F , ]</text>
<text text-anchor="start" x="457.5" y="-253.4" font-family="Times Roman,serif" font-size="14.00">[F &#45;&gt; ・ ( E ) , ]</text>
<text text-anchor="start" x="457.5" y="-237.4" font-family="Times Roman,serif" font-size="14.00">[F &#45;&gt; ・ id , ]</text>
</g>
<!-- 5&#45;&gt;6 -->
<g id="edge26" class="edge"><title>5&#45;&gt;6</title>
<path fill="none" stroke="black" d="M366.235,-274C381.711,-274 397.909,-274 413.335,-274"/>
<polygon fill="black" stroke="black" points="413.345,-277.5 423.345,-274 413.345,-270.5 413.345,-277.5"/>
<text text-anchor="middle" x="389" y="-277.4" font-family="Times Roman,serif" font-size="14.00">+</text>
</g>
<!-- 8 -->
<g id="node19" class="node"><title>8</title>
<polygon fill="none" stroke="black" points="1192.5,-162 1192.5,-218 1325.5,-218 1325.5,-162 1192.5,-162"/>
<text text-anchor="middle" x="1205.5" y="-185.4" font-family="Times Roman,serif" font-size="14.00">8</text>
<polyline fill="none" stroke="black" points="1218.5,-162 1218.5,-218 "/>
<text text-anchor="start" x="1226.5" y="-201.4" font-family="Times Roman,serif" font-size="14.00">[T &#45;&gt; ・ T * F , ]</text>
<text text-anchor="start" x="1226.5" y="-185.4" font-family="Times Roman,serif" font-size="14.00">[F &#45;&gt; ・ ( E ) , ]</text>
<text text-anchor="start" x="1226.5" y="-169.4" font-family="Times Roman,serif" font-size="14.00">[F &#45;&gt; ・ id , ]</text>
</g>
<!-- 4&#45;&gt;8 -->
<g id="edge22" class="edge"><title>4&#45;&gt;8</title>
<path fill="none" stroke="black" d="M1101.08,-87.1294C1107.56,-89.898 1113.99,-92.8723 1120,-96 1153,-113.162 1187.66,-136.588 1214.11,-155.76"/>
<polygon fill="black" stroke="black" points="1212.26,-158.744 1222.4,-161.822 1216.4,-153.094 1212.26,-158.744"/>
<text text-anchor="middle" x="1145" y="-117.4" font-family="Times Roman,serif" font-size="14.00">*</text>
</g>
<!-- 2&#45;&gt;4 -->
<g id="edge14" class="edge"><title>2&#45;&gt;4</title>
<path fill="none" stroke="black" d="M755.717,-137.651C761.725,-134.083 767.859,-130.803 774,-128 834.19,-100.525 907.734,-84.9591 962.858,-76.4394"/>
<polygon fill="black" stroke="black" points="963.559,-79.8735 972.93,-74.9293 962.521,-72.9509 963.559,-79.8735"/>
<text text-anchor="middle" x="862" y="-131.4" font-family="Times Roman,serif" font-size="14.00">T</text>
</g>
<!-- 2&#45;&gt;3 -->
<g id="edge16" class="edge"><title>2&#45;&gt;3</title>
<path fill="none" stroke="black" d="M755.715,-174.696C761.88,-173.361 768.042,-172.105 774,-171 851.564,-156.613 872.607,-163.281 950,-148 956.734,-146.67 963.7,-145.133 970.653,-143.486"/>
<polygon fill="black" stroke="black" points="971.92,-146.78 980.805,-141.009 970.26,-139.98 971.92,-146.78"/>
<text text-anchor="middle" x="862" y="-174.4" font-family="Times Roman,serif" font-size="14.00">F</text>
</g>
<!-- 2&#45;&gt;2 -->
<g id="edge18" class="edge"><title>2&#45;&gt;2</title>
<path fill="none" stroke="black" d="M670.828,-252.176C672.984,-262.688 678.375,-270 687,-270 692.66,-270 696.927,-266.851 699.802,-261.715"/>
<polygon fill="black" stroke="black" points="703.141,-262.771 703.172,-252.176 696.54,-260.439 703.141,-262.771"/>
<text text-anchor="middle" x="687" y="-273.4" font-family="Times Roman,serif" font-size="14.00">(</text>
</g>
<!-- 2&#45;&gt;1 -->
<g id="edge20" class="edge"><title>2&#45;&gt;1</title>
<path fill="none" stroke="black" d="M755.725,-203.397C901.205,-227.523 1240.1,-283.723 1401.08,-310.419"/>
<polygon fill="black" stroke="black" points="1400.51,-313.873 1410.95,-312.057 1401.66,-306.968 1400.51,-313.873"/>
<text text-anchor="middle" x="1145" y="-270.4" font-family="Times Roman,serif" font-size="14.00">id</text>
</g>
<!-- 9 -->
<g id="node13" class="node"><title>9</title>
<polygon fill="none" stroke="black" points="975.5,-327 975.5,-367 1112.5,-367 1112.5,-327 975.5,-327"/>
<text text-anchor="middle" x="988.5" y="-342.4" font-family="Times Roman,serif" font-size="14.00">9</text>
<polyline fill="none" stroke="black" points="1001.5,-327 1001.5,-367 "/>
<text text-anchor="start" x="1009.5" y="-350.4" font-family="Times Roman,serif" font-size="14.00">[E &#45;&gt; ・ E + T , ]</text>
<text text-anchor="start" x="1009.5" y="-334.4" font-family="Times Roman,serif" font-size="14.00">[F &#45;&gt; ・ ( E ) , ]</text>
</g>
<!-- 2&#45;&gt;9 -->
<g id="edge12" class="edge"><title>2&#45;&gt;9</title>
<path fill="none" stroke="black" d="M755.566,-248.185C761.585,-251.561 767.764,-254.568 774,-257 810.629,-271.283 917.892,-252.311 950,-275 965.262,-285.785 954.643,-299.93 968,-313 971.08,-316.014 974.473,-318.787 978.065,-321.334"/>
<polygon fill="black" stroke="black" points="976.44,-324.449 986.753,-326.876 980.204,-318.547 976.44,-324.449"/>
<text text-anchor="middle" x="862" y="-278.4" font-family="Times Roman,serif" font-size="14.00">E</text>
</g>
<!-- 9&#45;&gt;6 -->
<g id="edge42" class="edge"><title>9&#45;&gt;6</title>
<path fill="none" stroke="black" d="M975.312,-350.125C920.646,-351.798 842.258,-352.381 774,-346 691.199,-338.259 670.008,-334.688 590,-312 583.513,-310.16 576.856,-308.06 570.214,-305.813"/>
<polygon fill="black" stroke="black" points="571.111,-302.418 560.516,-302.428 568.804,-309.028 571.111,-302.418"/>
<text text-anchor="middle" x="687" y="-347.4" font-family="Times Roman,serif" font-size="14.00">+</text>
</g>
<!-- 10 -->
<g id="node35" class="node"><title>10</title>
<polygon fill="none" stroke="black" points="1170.5,-329 1170.5,-365 1347.5,-365 1347.5,-329 1170.5,-329"/>
<text text-anchor="middle" x="1188" y="-342.4" font-family="Times Roman,serif" font-size="14.00">10</text>
<polyline fill="none" stroke="black" points="1205.5,-329 1205.5,-365 "/>
<text text-anchor="start" x="1213.5" y="-342.4" font-family="Times Roman,serif" font-size="14.00">[F &#45;&gt; ・ ( E ) , ) * $ +]</text>
</g>
<!-- 9&#45;&gt;10 -->
<g id="edge44" class="edge"><title>9&#45;&gt;10</title>
<path fill="none" stroke="black" d="M1112.62,-347C1127.64,-347 1143.83,-347 1159.78,-347"/>
<polygon fill="black" stroke="black" points="1160.21,-350.5 1170.21,-347 1160.21,-343.5 1160.21,-350.5"/>
<text text-anchor="middle" x="1145" y="-350.4" font-family="Times Roman,serif" font-size="14.00">)</text>
</g>
<!-- 8&#45;&gt;2 -->
<g id="edge38" class="edge"><title>8&#45;&gt;2</title>
<path fill="none" stroke="black" d="M1192.34,-190.233C1086.25,-190.604 879.444,-191.327 766.053,-191.724"/>
<polygon fill="black" stroke="black" points="765.7,-188.225 755.712,-191.76 765.724,-195.225 765.7,-188.225"/>
<text text-anchor="middle" x="1044" y="-194.4" font-family="Times Roman,serif" font-size="14.00">(</text>
</g>
<!-- 8&#45;&gt;1 -->
<g id="edge40" class="edge"><title>8&#45;&gt;1</title>
<path fill="none" stroke="black" d="M1325.79,-197.281C1344.13,-201.129 1363.49,-207.011 1380,-216 1417.38,-236.348 1450.38,-273.476 1470.02,-298.686"/>
<polygon fill="black" stroke="black" points="1467.31,-300.904 1476.15,-306.737 1472.87,-296.661 1467.31,-300.904"/>
<text text-anchor="middle" x="1373" y="-219.4" font-family="Times Roman,serif" font-size="14.00">id</text>
</g>
<!-- 11 -->
<g id="node30" class="node"><title>11</title>
<polygon fill="none" stroke="black" points="1398.5,-158 1398.5,-194 1579.5,-194 1579.5,-158 1398.5,-158"/>
<text text-anchor="middle" x="1416" y="-171.4" font-family="Times Roman,serif" font-size="14.00">11</text>
<polyline fill="none" stroke="black" points="1433.5,-158 1433.5,-194 "/>
<text text-anchor="start" x="1441.5" y="-171.4" font-family="Times Roman,serif" font-size="14.00">[T &#45;&gt; ・ T * F , ) * $ +]</text>
</g>
<!-- 8&#45;&gt;11 -->
<g id="edge36" class="edge"><title>8&#45;&gt;11</title>
<path fill="none" stroke="black" d="M1325.67,-180.722C1339,-179.199 1352.93,-177.845 1366,-177 1373.18,-176.536 1380.6,-176.177 1388.07,-175.903"/>
<polygon fill="black" stroke="black" points="1388.39,-179.395 1398.28,-175.581 1388.17,-172.399 1388.39,-179.395"/>
<text text-anchor="middle" x="1373" y="-180.4" font-family="Times Roman,serif" font-size="14.00">F</text>
</g>
<!-- 6&#45;&gt;3 -->
<g id="edge30" class="edge"><title>6&#45;&gt;3</title>
<path fill="none" stroke="black" d="M511.058,-229.8C531.135,-189.478 566.962,-132.428 618,-107 734.41,-49.0037 891.732,-78.168 978.948,-102.16"/>
<polygon fill="black" stroke="black" points="978.139,-105.568 988.713,-104.906 980.034,-98.8295 978.139,-105.568"/>
<text text-anchor="middle" x="687" y="-110.4" font-family="Times Roman,serif" font-size="14.00">F</text>
</g>
<!-- 6&#45;&gt;2 -->
<g id="edge32" class="edge"><title>6&#45;&gt;2</title>
<path fill="none" stroke="black" d="M560.75,-245.09C576.332,-238.537 592.991,-231.532 608.928,-224.83"/>
<polygon fill="black" stroke="black" points="610.352,-228.028 618.214,-220.925 607.639,-221.576 610.352,-228.028"/>
<text text-anchor="middle" x="595" y="-233.4" font-family="Times Roman,serif" font-size="14.00">(</text>
</g>
<!-- 6&#45;&gt;1 -->
<g id="edge34" class="edge"><title>6&#45;&gt;1</title>
<path fill="none" stroke="black" d="M559.528,-318.091C563.777,-321.064 567.965,-324.05 572,-327 621.657,-363.3 625.49,-404 687,-404 687,-404 687,-404 1259,-404 1328.57,-404 1403.87,-371.27 1448.7,-347.944"/>
<polygon fill="black" stroke="black" points="1450.6,-350.901 1457.79,-343.124 1447.32,-344.716 1450.6,-350.901"/>
<text text-anchor="middle" x="1044" y="-407.4" font-family="Times Roman,serif" font-size="14.00">id</text>
</g>
<!-- 12 -->
<g id="node25" class="node"><title>12</title>
<polygon fill="none" stroke="black" points="774,-300 774,-340 950,-340 950,-300 774,-300"/>
<text text-anchor="middle" x="791.5" y="-315.4" font-family="Times Roman,serif" font-size="14.00">12</text>
<polyline fill="none" stroke="black" points="809,-300 809,-340 "/>
<text text-anchor="start" x="817" y="-323.4" font-family="Times Roman,serif" font-size="14.00">[E &#45;&gt; ・ E + T , ) $ +]</text>
<text text-anchor="start" x="817" y="-307.4" font-family="Times Roman,serif" font-size="14.00">[T &#45;&gt; ・ T * F , ]</text>
</g>
<!-- 6&#45;&gt;12 -->
<g id="edge28" class="edge"><title>6&#45;&gt;12</title>
<path fill="none" stroke="black" d="M560.545,-286.23C579.151,-289.33 599.318,-292.489 618,-295 665.868,-301.435 719.216,-307.075 763.792,-311.362"/>
<polygon fill="black" stroke="black" points="763.462,-314.846 773.749,-312.311 764.127,-307.878 763.462,-314.846"/>
<text text-anchor="middle" x="595" y="-295.4" font-family="Times Roman,serif" font-size="14.00">T</text>
</g>
<!-- 12&#45;&gt;8 -->
<g id="edge46" class="edge"><title>12&#45;&gt;8</title>
<path fill="none" stroke="black" d="M950.163,-304.532C1031.99,-290.028 1142.58,-269.99 1152,-266 1176.05,-255.809 1200.01,-239.507 1219.15,-224.61"/>
<polygon fill="black" stroke="black" points="1221.39,-227.298 1227.04,-218.334 1217.03,-221.82 1221.39,-227.298"/>
<text text-anchor="middle" x="1044" y="-303.4" font-family="Times Roman,serif" font-size="14.00">*</text>
</g>
</g>
</svg>
