<?xml version="1.0" encoding="UTF-8" standalone="no"?>
<!DOCTYPE svg PUBLIC "-//W3C//DTD SVG 1.1//EN"
 "http://www.w3.org/Graphics/SVG/1.1/DTD/svg11.dtd">
<!-- Generated by graphviz version 2.26.3 (20100126.1600)
 -->
<!-- Title: lalr1_g10 Pages: 1 -->
<svg width="948pt" height="242pt"
 viewBox="0.00 0.00 948.00 242.00" xmlns="http://www.w3.org/2000/svg" xmlns:xlink="http://www.w3.org/1999/xlink">
<g id="graph1" class="graph" transform="scale(1 1) rotate(0) translate(4 238)">
<title>lalr1_g10</title>
<polygon fill="white" stroke="white" points="-4,5 -4,-238 945,-238 945,5 -4,5"/>
<!-- 0 -->
<g id="node1" class="node"><title>0</title>
<polygon fill="none" stroke="black" points="0,-78 0,-134 160,-134 160,-78 0,-78"/>
<text text-anchor="middle" x="13" y="-101.4" font-family="Times Roman,serif" font-size="14.00">0</text>
<polyline fill="none" stroke="black" points="26,-78 26,-134 "/>
<text text-anchor="start" x="34" y="-117.4" font-family="Times Roman,serif" font-size="14.00">[START &#45;&gt; ・ A $ , ]</text>
<text text-anchor="start" x="34" y="-101.4" font-family="Times Roman,serif" font-size="14.00">[A &#45;&gt; ・ b B , ]</text>
<text text-anchor="start" x="34" y="-85.4" font-family="Times Roman,serif" font-size="14.00">[A &#45;&gt; ・ a , ]</text>
</g>
<!-- 3 -->
<g id="node3" class="node"><title>3</title>
<polygon fill="none" stroke="black" points="206,-171 206,-207 366,-207 366,-171 206,-171"/>
<text text-anchor="middle" x="219" y="-184.4" font-family="Times Roman,serif" font-size="14.00">3</text>
<polyline fill="none" stroke="black" points="232,-171 232,-207 "/>
<text text-anchor="start" x="240" y="-184.4" font-family="Times Roman,serif" font-size="14.00">[START &#45;&gt; ・ A $ , ]</text>
</g>
<!-- 0&#45;&gt;3 -->
<g id="edge2" class="edge"><title>0&#45;&gt;3</title>
<path fill="none" stroke="black" d="M149.742,-134.1C176.549,-144.901 206.722,-157.058 231.849,-167.182"/>
<polygon fill="black" stroke="black" points="230.63,-170.464 241.214,-170.955 233.246,-163.971 230.63,-170.464"/>
<text text-anchor="middle" x="183" y="-150.4" font-family="Times Roman,serif" font-size="14.00">A</text>
</g>
<!-- 2 -->
<g id="node5" class="node"><title>2</title>
<polygon fill="none" stroke="black" points="222.5,-86 222.5,-126 349.5,-126 349.5,-86 222.5,-86"/>
<text text-anchor="middle" x="235.5" y="-101.4" font-family="Times Roman,serif" font-size="14.00">2</text>
<polyline fill="none" stroke="black" points="248.5,-86 248.5,-126 "/>
<text text-anchor="start" x="256.5" y="-109.4" font-family="Times Roman,serif" font-size="14.00">[A &#45;&gt; ・ b B , ]</text>
<text text-anchor="start" x="256.5" y="-93.4" font-family="Times Roman,serif" font-size="14.00">[B &#45;&gt; ・ c C , ]</text>
</g>
<!-- 0&#45;&gt;2 -->
<g id="edge4" class="edge"><title>0&#45;&gt;2</title>
<path fill="none" stroke="black" d="M160.235,-106C177.262,-106 195.162,-106 211.947,-106"/>
<polygon fill="black" stroke="black" points="212.236,-109.5 222.235,-106 212.235,-102.5 212.236,-109.5"/>
<text text-anchor="middle" x="183" y="-109.4" font-family="Times Roman,serif" font-size="14.00">b</text>
</g>
<!-- 1 -->
<g id="node7" class="node"><title>1</title>
<polygon fill="none" stroke="black" points="810.5,-8 810.5,-44 931.5,-44 931.5,-8 810.5,-8"/>
<text text-anchor="middle" x="823.5" y="-21.4" font-family="Times Roman,serif" font-size="14.00">1</text>
<polyline fill="none" stroke="black" points="836.5,-8 836.5,-44 "/>
<text text-anchor="start" x="844.5" y="-21.4" font-family="Times Roman,serif" font-size="14.00">[A &#45;&gt; ・ a , $]</text>
</g>
<!-- 0&#45;&gt;1 -->
<g id="edge6" class="edge"><title>0&#45;&gt;1</title>
<path fill="none" stroke="black" d="M111.313,-77.8722C149.621,-46.4692 217.826,-0 286,-0 286,-0 286,-0 688,-0 725.224,-0 766.288,-5.33838 800.069,-11.1772"/>
<polygon fill="black" stroke="black" points="799.848,-14.6928 810.306,-13 801.075,-7.8012 799.848,-14.6928"/>
<text text-anchor="middle" x="492" y="-3.4" font-family="Times Roman,serif" font-size="14.00">a</text>
</g>
<!-- 4 -->
<g id="node13" class="node"><title>4</title>
<polygon fill="none" stroke="black" points="412,-198 412,-234 572,-234 572,-198 412,-198"/>
<text text-anchor="middle" x="425" y="-211.4" font-family="Times Roman,serif" font-size="14.00">4</text>
<polyline fill="none" stroke="black" points="438,-198 438,-234 "/>
<text text-anchor="start" x="446" y="-211.4" font-family="Times Roman,serif" font-size="14.00">[START &#45;&gt; ・ A $ , ]</text>
</g>
<!-- 3&#45;&gt;4 -->
<g id="edge12" class="edge"><title>3&#45;&gt;4</title>
<path fill="none" stroke="black" d="M366.235,-199.516C377.973,-201.055 390.127,-202.648 402.044,-204.21"/>
<polygon fill="black" stroke="black" points="401.614,-207.683 411.984,-205.512 402.524,-200.743 401.614,-207.683"/>
<text text-anchor="middle" x="389" y="-205.4" font-family="Times Roman,serif" font-size="14.00">$</text>
</g>
<!-- 6 -->
<g id="node9" class="node"><title>6</title>
<polygon fill="none" stroke="black" points="424,-34 424,-70 560,-70 560,-34 424,-34"/>
<text text-anchor="middle" x="437" y="-47.4" font-family="Times Roman,serif" font-size="14.00">6</text>
<polyline fill="none" stroke="black" points="450,-34 450,-70 "/>
<text text-anchor="start" x="458" y="-47.4" font-family="Times Roman,serif" font-size="14.00">[A &#45;&gt; ・ b B , $]</text>
</g>
<!-- 2&#45;&gt;6 -->
<g id="edge8" class="edge"><title>2&#45;&gt;6</title>
<path fill="none" stroke="black" d="M348.789,-85.9816C360.449,-82.4917 372.559,-79.0175 384,-76 393.611,-73.4652 403.75,-70.9744 413.81,-68.6135"/>
<polygon fill="black" stroke="black" points="414.867,-71.9616 423.822,-66.2991 413.29,-65.1414 414.867,-71.9616"/>
<text text-anchor="middle" x="389" y="-79.4" font-family="Times Roman,serif" font-size="14.00">B</text>
</g>
<!-- 5 -->
<g id="node11" class="node"><title>5</title>
<polygon fill="none" stroke="black" points="428,-140 428,-180 556,-180 556,-140 428,-140"/>
<text text-anchor="middle" x="441" y="-155.4" font-family="Times Roman,serif" font-size="14.00">5</text>
<polyline fill="none" stroke="black" points="454,-140 454,-180 "/>
<text text-anchor="start" x="462" y="-163.4" font-family="Times Roman,serif" font-size="14.00">[B &#45;&gt; ・ c C , ]</text>
<text text-anchor="start" x="462" y="-147.4" font-family="Times Roman,serif" font-size="14.00">[C &#45;&gt; ・ d A , ]</text>
</g>
<!-- 2&#45;&gt;5 -->
<g id="edge10" class="edge"><title>2&#45;&gt;5</title>
<path fill="none" stroke="black" d="M349.769,-122.716C371.385,-128.382 395.711,-134.759 418.051,-140.615"/>
<polygon fill="black" stroke="black" points="417.262,-144.027 427.823,-143.177 419.037,-137.256 417.262,-144.027"/>
<text text-anchor="middle" x="389" y="-136.4" font-family="Times Roman,serif" font-size="14.00">c</text>
</g>
<!-- 8 -->
<g id="node15" class="node"><title>8</title>
<polygon fill="none" stroke="black" points="620,-160 620,-196 756,-196 756,-160 620,-160"/>
<text text-anchor="middle" x="633" y="-173.4" font-family="Times Roman,serif" font-size="14.00">8</text>
<polyline fill="none" stroke="black" points="646,-160 646,-196 "/>
<text text-anchor="start" x="654" y="-173.4" font-family="Times Roman,serif" font-size="14.00">[B &#45;&gt; ・ c C , $]</text>
</g>
<!-- 5&#45;&gt;8 -->
<g id="edge14" class="edge"><title>5&#45;&gt;8</title>
<path fill="none" stroke="black" d="M556.178,-165.894C573.257,-167.462 591.898,-169.174 609.643,-170.804"/>
<polygon fill="black" stroke="black" points="609.691,-174.323 619.969,-171.752 610.331,-167.352 609.691,-174.323"/>
<text text-anchor="middle" x="596" y="-173.4" font-family="Times Roman,serif" font-size="14.00">C</text>
</g>
<!-- 7 -->
<g id="node17" class="node"><title>7</title>
<polygon fill="none" stroke="black" points="624,-78 624,-134 752,-134 752,-78 624,-78"/>
<text text-anchor="middle" x="637" y="-101.4" font-family="Times Roman,serif" font-size="14.00">7</text>
<polyline fill="none" stroke="black" points="650,-78 650,-134 "/>
<text text-anchor="start" x="658" y="-117.4" font-family="Times Roman,serif" font-size="14.00">[A &#45;&gt; ・ b B , ]</text>
<text text-anchor="start" x="658" y="-101.4" font-family="Times Roman,serif" font-size="14.00">[C &#45;&gt; ・ d A , ]</text>
<text text-anchor="start" x="658" y="-85.4" font-family="Times Roman,serif" font-size="14.00">[A &#45;&gt; ・ a , ]</text>
</g>
<!-- 5&#45;&gt;7 -->
<g id="edge16" class="edge"><title>5&#45;&gt;7</title>
<path fill="none" stroke="black" d="M556.178,-142.318C574.622,-137.237 594.887,-131.653 613.879,-126.421"/>
<polygon fill="black" stroke="black" points="614.967,-129.752 623.678,-123.721 613.108,-123.003 614.967,-129.752"/>
<text text-anchor="middle" x="596" y="-136.4" font-family="Times Roman,serif" font-size="14.00">d</text>
</g>
<!-- 7&#45;&gt;2 -->
<g id="edge18" class="edge"><title>7&#45;&gt;2</title>
<path fill="none" stroke="black" d="M623.936,-106C552.103,-106 435.79,-106 360.1,-106"/>
<polygon fill="black" stroke="black" points="359.698,-102.5 349.698,-106 359.698,-109.5 359.698,-102.5"/>
<text text-anchor="middle" x="492" y="-109.4" font-family="Times Roman,serif" font-size="14.00">b</text>
</g>
<!-- 7&#45;&gt;1 -->
<g id="edge22" class="edge"><title>7&#45;&gt;1</title>
<path fill="none" stroke="black" d="M752.005,-78.0199C774.35,-68.2515 799.107,-57.4287 820.227,-48.1959"/>
<polygon fill="black" stroke="black" points="821.892,-51.2877 829.653,-44.0752 819.088,-44.8738 821.892,-51.2877"/>
<text text-anchor="middle" x="779" y="-71.4" font-family="Times Roman,serif" font-size="14.00">a</text>
</g>
<!-- 9 -->
<g id="node20" class="node"><title>9</title>
<polygon fill="none" stroke="black" points="802.5,-88 802.5,-124 939.5,-124 939.5,-88 802.5,-88"/>
<text text-anchor="middle" x="815.5" y="-101.4" font-family="Times Roman,serif" font-size="14.00">9</text>
<polyline fill="none" stroke="black" points="828.5,-88 828.5,-124 "/>
<text text-anchor="start" x="836.5" y="-101.4" font-family="Times Roman,serif" font-size="14.00">[C &#45;&gt; ・ d A , $]</text>
</g>
<!-- 7&#45;&gt;9 -->
<g id="edge20" class="edge"><title>7&#45;&gt;9</title>
<path fill="none" stroke="black" d="M752.005,-106C764.982,-106 778.772,-106 792.192,-106"/>
<polygon fill="black" stroke="black" points="792.361,-109.5 802.361,-106 792.361,-102.5 792.361,-109.5"/>
<text text-anchor="middle" x="779" y="-109.4" font-family="Times Roman,serif" font-size="14.00">A</text>
</g>
</g>
</svg>
