<?xml version="1.0" encoding="UTF-8" standalone="no"?>
<!DOCTYPE svg PUBLIC "-//W3C//DTD SVG 1.1//EN"
 "http://www.w3.org/Graphics/SVG/1.1/DTD/svg11.dtd">
<!-- Generated by graphviz version 2.26.3 (20100126.1600)
 -->
<!-- Title: lalr1_g10 Pages: 1 -->
<svg width="998pt" height="197pt"
 viewBox="0.00 0.00 998.00 197.00" xmlns="http://www.w3.org/2000/svg" xmlns:xlink="http://www.w3.org/1999/xlink">
<g id="graph1" class="graph" transform="scale(1 1) rotate(0) translate(4 193)">
<title>lalr1_g10</title>
<polygon fill="white" stroke="white" points="-4,5 -4,-193 995,-193 995,5 -4,5"/>
<!-- 0 -->
<g id="node1" class="node"><title>0</title>
<polygon fill="none" stroke="black" points="0,-47 0,-119 160,-119 160,-47 0,-47"/>
<text text-anchor="middle" x="13" y="-78.4" font-family="Times Roman,serif" font-size="14.00">0</text>
<polyline fill="none" stroke="black" points="26,-47 26,-119 "/>
<text text-anchor="start" x="34" y="-102.4" font-family="Times Roman,serif" font-size="14.00">[START &#45;&gt; ・ A $ , ]</text>
<text text-anchor="start" x="34" y="-86.4" font-family="Times Roman,serif" font-size="14.00">[A &#45;&gt; ・ B C D A , ]</text>
<text text-anchor="start" x="34" y="-70.4" font-family="Times Roman,serif" font-size="14.00">[B &#45;&gt; ・ &#160;, a]</text>
<text text-anchor="start" x="34" y="-54.4" font-family="Times Roman,serif" font-size="14.00">[A &#45;&gt; ・ a , ]</text>
</g>
<!-- 3 -->
<g id="node3" class="node"><title>3</title>
<polygon fill="none" stroke="black" points="206,-137 206,-173 366,-173 366,-137 206,-137"/>
<text text-anchor="middle" x="219" y="-150.4" font-family="Times Roman,serif" font-size="14.00">3</text>
<polyline fill="none" stroke="black" points="232,-137 232,-173 "/>
<text text-anchor="start" x="240" y="-150.4" font-family="Times Roman,serif" font-size="14.00">[START &#45;&gt; ・ A $ , ]</text>
</g>
<!-- 0&#45;&gt;3 -->
<g id="edge2" class="edge"><title>0&#45;&gt;3</title>
<path fill="none" stroke="black" d="M160.235,-111.043C181.691,-118.542 204.534,-126.526 224.783,-133.604"/>
<polygon fill="black" stroke="black" points="223.902,-137.003 234.497,-136.999 226.212,-130.395 223.902,-137.003"/>
<text text-anchor="middle" x="183" y="-122.4" font-family="Times Roman,serif" font-size="14.00">A</text>
</g>
<!-- 2 -->
<g id="node5" class="node"><title>2</title>
<polygon fill="none" stroke="black" points="208,-63 208,-103 364,-103 364,-63 208,-63"/>
<text text-anchor="middle" x="221" y="-78.4" font-family="Times Roman,serif" font-size="14.00">2</text>
<polyline fill="none" stroke="black" points="234,-63 234,-103 "/>
<text text-anchor="start" x="242" y="-86.4" font-family="Times Roman,serif" font-size="14.00">[A &#45;&gt; ・ B C D A , ]</text>
<text text-anchor="start" x="242" y="-70.4" font-family="Times Roman,serif" font-size="14.00">[C &#45;&gt; ・ &#160;, a]</text>
</g>
<!-- 0&#45;&gt;2 -->
<g id="edge4" class="edge"><title>0&#45;&gt;2</title>
<path fill="none" stroke="black" d="M160.235,-83C172.415,-83 185.041,-83 197.387,-83"/>
<polygon fill="black" stroke="black" points="197.675,-86.5001 207.675,-83 197.675,-79.5001 197.675,-86.5001"/>
<text text-anchor="middle" x="183" y="-86.4" font-family="Times Roman,serif" font-size="14.00">B</text>
</g>
<!-- 1 -->
<g id="node7" class="node"><title>1</title>
<polygon fill="none" stroke="black" points="846.5,-0 846.5,-36 967.5,-36 967.5,-0 846.5,-0"/>
<text text-anchor="middle" x="859.5" y="-13.4" font-family="Times Roman,serif" font-size="14.00">1</text>
<polyline fill="none" stroke="black" points="872.5,-0 872.5,-36 "/>
<text text-anchor="start" x="880.5" y="-13.4" font-family="Times Roman,serif" font-size="14.00">[A &#45;&gt; ・ a , $]</text>
</g>
<!-- 0&#45;&gt;1 -->
<g id="edge6" class="edge"><title>0&#45;&gt;1</title>
<path fill="none" stroke="black" d="M144.684,-46.8671C184.248,-28.0826 236.598,-9 286,-9 286,-9 286,-9 700,-9 745.335,-9 796.201,-11.1813 836.166,-13.3961"/>
<polygon fill="black" stroke="black" points="836.162,-16.9014 846.344,-13.9738 836.558,-9.91263 836.162,-16.9014"/>
<text text-anchor="middle" x="494" y="-12.4" font-family="Times Roman,serif" font-size="14.00">a</text>
</g>
<!-- 4 -->
<g id="node11" class="node"><title>4</title>
<polygon fill="none" stroke="black" points="414,-153 414,-189 574,-189 574,-153 414,-153"/>
<text text-anchor="middle" x="427" y="-166.4" font-family="Times Roman,serif" font-size="14.00">4</text>
<polyline fill="none" stroke="black" points="440,-153 440,-189 "/>
<text text-anchor="start" x="448" y="-166.4" font-family="Times Roman,serif" font-size="14.00">[START &#45;&gt; ・ A $ , ]</text>
</g>
<!-- 3&#45;&gt;4 -->
<g id="edge10" class="edge"><title>3&#45;&gt;4</title>
<path fill="none" stroke="black" d="M366.121,-161.163C378.492,-162.115 391.34,-163.103 403.912,-164.07"/>
<polygon fill="black" stroke="black" points="403.682,-167.563 413.921,-164.84 404.218,-160.583 403.682,-167.563"/>
<text text-anchor="middle" x="390" y="-166.4" font-family="Times Roman,serif" font-size="14.00">$</text>
</g>
<!-- 5 -->
<g id="node9" class="node"><title>5</title>
<polygon fill="none" stroke="black" points="416,-95 416,-135 572,-135 572,-95 416,-95"/>
<text text-anchor="middle" x="429" y="-110.4" font-family="Times Roman,serif" font-size="14.00">5</text>
<polyline fill="none" stroke="black" points="442,-95 442,-135 "/>
<text text-anchor="start" x="450" y="-118.4" font-family="Times Roman,serif" font-size="14.00">[A &#45;&gt; ・ B C D A , ]</text>
<text text-anchor="start" x="450" y="-102.4" font-family="Times Roman,serif" font-size="14.00">[D &#45;&gt; ・ &#160;, a]</text>
</g>
<!-- 2&#45;&gt;5 -->
<g id="edge8" class="edge"><title>2&#45;&gt;5</title>
<path fill="none" stroke="black" d="M364.043,-95.0067C377.679,-97.1045 391.951,-99.3001 405.837,-101.436"/>
<polygon fill="black" stroke="black" points="405.449,-104.918 415.865,-102.979 406.514,-97.9993 405.449,-104.918"/>
<text text-anchor="middle" x="390" y="-102.4" font-family="Times Roman,serif" font-size="14.00">C</text>
</g>
<!-- 6 -->
<g id="node13" class="node"><title>6</title>
<polygon fill="none" stroke="black" points="622,-41 622,-113 778,-113 778,-41 622,-41"/>
<text text-anchor="middle" x="635" y="-72.4" font-family="Times Roman,serif" font-size="14.00">6</text>
<polyline fill="none" stroke="black" points="648,-41 648,-113 "/>
<text text-anchor="start" x="656" y="-96.4" font-family="Times Roman,serif" font-size="14.00">[A &#45;&gt; ・ B C D A , ]</text>
<text text-anchor="start" x="656" y="-80.4" font-family="Times Roman,serif" font-size="14.00">[A &#45;&gt; ・ B C D A , ]</text>
<text text-anchor="start" x="656" y="-64.4" font-family="Times Roman,serif" font-size="14.00">[B &#45;&gt; ・ &#160;, a]</text>
<text text-anchor="start" x="656" y="-48.4" font-family="Times Roman,serif" font-size="14.00">[A &#45;&gt; ・ a , ]</text>
</g>
<!-- 5&#45;&gt;6 -->
<g id="edge12" class="edge"><title>5&#45;&gt;6</title>
<path fill="none" stroke="black" d="M572.173,-100.58C585.144,-98.1871 598.672,-95.6915 611.868,-93.2573"/>
<polygon fill="black" stroke="black" points="612.681,-96.6666 621.88,-91.4105 611.411,-89.7827 612.681,-96.6666"/>
<text text-anchor="middle" x="598" y="-99.4" font-family="Times Roman,serif" font-size="14.00">D</text>
</g>
<!-- 6&#45;&gt;2 -->
<g id="edge14" class="edge"><title>6&#45;&gt;2</title>
<path fill="none" stroke="black" d="M621.725,-71.9753C605.931,-71.1519 589.44,-70.4286 574,-70 502.916,-68.027 485.02,-66.4028 414,-70 401.112,-70.6528 387.522,-71.673 374.203,-72.8616"/>
<polygon fill="black" stroke="black" points="373.721,-69.3912 364.087,-73.8001 374.368,-76.3613 373.721,-69.3912"/>
<text text-anchor="middle" x="494" y="-73.4" font-family="Times Roman,serif" font-size="14.00">B</text>
</g>
<!-- 6&#45;&gt;1 -->
<g id="edge18" class="edge"><title>6&#45;&gt;1</title>
<path fill="none" stroke="black" d="M778.258,-54.6946C797.464,-49.2203 817.906,-43.3939 836.711,-38.0339"/>
<polygon fill="black" stroke="black" points="837.724,-41.3849 846.381,-35.2778 835.805,-34.653 837.724,-41.3849"/>
<text text-anchor="middle" x="801" y="-52.4" font-family="Times Roman,serif" font-size="14.00">a</text>
</g>
<!-- 7 -->
<g id="node16" class="node"><title>7</title>
<polygon fill="none" stroke="black" points="824.5,-63 824.5,-99 989.5,-99 989.5,-63 824.5,-63"/>
<text text-anchor="middle" x="837.5" y="-76.4" font-family="Times Roman,serif" font-size="14.00">7</text>
<polyline fill="none" stroke="black" points="850.5,-63 850.5,-99 "/>
<text text-anchor="start" x="858.5" y="-76.4" font-family="Times Roman,serif" font-size="14.00">[A &#45;&gt; ・ B C D A , $]</text>
</g>
<!-- 6&#45;&gt;7 -->
<g id="edge16" class="edge"><title>6&#45;&gt;7</title>
<path fill="none" stroke="black" d="M778.258,-78.5122C790.065,-78.7404 802.338,-78.9775 814.411,-79.2108"/>
<polygon fill="black" stroke="black" points="814.425,-82.7117 824.491,-79.4056 814.561,-75.713 814.425,-82.7117"/>
<text text-anchor="middle" x="801" y="-82.4" font-family="Times Roman,serif" font-size="14.00">A</text>
</g>
</g>
</svg>
